<?xml version="1.0" encoding="UTF-8" standalone="no"?>
<!-- Created with Inkscape (http://www.inkscape.org/) -->

<svg
   width="12.028064mm"
   height="15.225777mm"
   viewBox="0 0 12.028064 15.225777"
   version="1.1"
   id="svg1"
   inkscape:version="1.4.2 (ebf0e940d0, 2025-05-08)"
   sodipodi:docname="dessin.svg"
   xmlns:inkscape="http://www.inkscape.org/namespaces/inkscape"
   xmlns:sodipodi="http://sodipodi.sourceforge.net/DTD/sodipodi-0.dtd"
   xmlns:xlink="http://www.w3.org/1999/xlink"
   xmlns="http://www.w3.org/2000/svg"
   xmlns:svg="http://www.w3.org/2000/svg">
  <sodipodi:namedview
     id="namedview1"
     pagecolor="#d9d9d9"
     bordercolor="#ffffff"
     borderopacity="1"
     inkscape:showpageshadow="0"
     inkscape:pageopacity="0"
     inkscape:pagecheckerboard="0"
     inkscape:deskcolor="#272727"
     inkscape:document-units="mm"
     inkscape:zoom="0.80444024"
     inkscape:cx="396.54904"
     inkscape:cy="523.96683"
     inkscape:window-width="1916"
     inkscape:window-height="1161"
     inkscape:window-x="0"
     inkscape:window-y="18"
     inkscape:window-maximized="1"
     inkscape:current-layer="layer1" />
  <defs
     id="defs1">
    <symbol
       id="Local_vector_library.svg:g53"
       style="display:inline">
      <title
         id="title55">hacker-1</title>
      <g
         id="g53_transform"
         transform="matrix(0.04184575,0,0,0.04184575,58.108625,0.44557101)"
         inkscape:label="hacker-1">
        <path
           class="a"
           d="m 239.005,329 c 8.871,-1.667 13.211,-0.933 21.868,-7.279 7.336,-5.378 17.331,-10.038 21.7,-18.415 a 24.825,24.825 0 0 0 2.36,-13.177 129.959,129.959 0 0 0 -6.221,-32.687 c -3.763,-11.155 -20.577,-49.878 -23.321,-58.041 -2.988,-8.885 -6.3,-18.07 -13,-24.626 -3.694,-3.613 -8.212,-6.214 -12.815,-8.607 -3.622,-2.137 -23.116,-12.48 -24.713,-13.338 8.29,-5.6 15.053,-11.526 20.925,-22.532 a 34.724,34.724 0 0 0 2.861,-6.889 c 4.07,-14.408 1.679,-29.753 -0.738,-44.529 -1.354,-8.281 -11.8,-40.761 -33.4,-55.872 C 184.3,15.863 152.358,3.208 140.724,2.37 129.082,3.203 97.135,15.862 86.924,23.008 65.324,38.119 54.882,70.599 53.524,78.88 51.11,93.655 48.72,109 52.79,123.408 a 34.78,34.78 0 0 0 2.86,6.889 c 5.878,11.016 12.649,16.945 20.916,22.567 -2.085,1.022 -15.179,9.565 -18.784,11.692 -4.6,2.393 -9.121,4.994 -12.815,8.608 -6.7,6.555 -10.012,15.74 -13,24.625 -2.744,8.163 -19.558,46.886 -23.321,58.041 a 129.923,129.923 0 0 0 -6.221,32.687 24.825,24.825 0 0 0 2.36,13.177 c 4.365,8.377 14.36,13.037 21.7,18.416 a 54.172,54.172 0 0 0 21.8,7.717"
           id="path30"
           style="fill:#4d4544" />
        <path
           class="b"
           d="m 88.743,121.908 c -3.323,-7.186 -4.95,-16.278 -4.085,-27.79 9.666,-9.575 32.56,-22.55 54.927,-22.55 22.367,0 45.26,12.975 54.926,22.55 2.336,26.018 -13.071,46.667 -28.508,50.54 a 95.426,95.426 0 0 1 -19.971,3.09 c -7.118,0.3 -19.129,-0.581 -19.129,-0.581 -15.266,-2.83 -30.834,-9.414 -38.16,-25.259 z"
           id="path31"
           style="fill:#ffffff" />
        <path
           class="c"
           d="m 228.452,203.106 c -3.753,15.29 -7.728,30.576 -10.689,46.045 -0.517,2.7 -1,5.413 -1.3,8.146 -0.289,2.583 -0.221,5.2 -0.251,7.8 -0.068,5.971 -0.06,11.942 -0.029,17.914 0.041,8.075 0.1,16.151 0.1,24.226 0,3.089 4.8,3.094 4.8,0 0,-13.158 -0.2,-26.317 -0.094,-39.474 0.023,-2.915 -0.018,-5.848 0.129,-8.758 0.023,-0.454 0.064,-0.907 0.11,-1.358 0.055,-0.535 0.113,-1 0.148,-1.251 0.188,-1.343 0.416,-2.681 0.656,-4.016 1.316,-7.3 3,-14.532 4.7,-21.75 2.058,-8.764 4.211,-17.5 6.357,-26.248 0.736,-3 -3.891,-4.279 -4.628,-1.276 z"
           id="path32"
           style="fill:#211715" />
        <path
           class="c"
           d="m 238.182,275.72 a 75.482,75.482 0 0 1 6.672,4.061 c 1.043,0.712 2.065,1.454 3.072,2.216 0.1,0.075 0.279,0.213 0.078,0.057 l 0.373,0.292 q 0.418,0.328 0.833,0.665 0.781,0.633 1.547,1.287 a 2.4,2.4 0 0 0 3.394,-3.394 78.26,78.26 0 0 0 -13.547,-9.329 2.4003702,2.4003702 0 0 0 -2.422,4.145 z"
           id="path33"
           style="fill:#211715" />
        <path
           class="c"
           d="m 53.69,204.382 c 3.723,15.17 7.654,30.334 10.618,45.675 0.285,1.477 0.557,2.957 0.8,4.442 0.2,1.224 0.318,2 0.427,3.033 0.278,2.623 0.2,5.29 0.229,7.924 0.065,5.911 0.055,11.822 0.025,17.733 -0.042,8.016 -0.1,16.032 -0.1,24.048 0,3.089 4.8,3.094 4.8,0 0,-13.275 0.2,-26.551 0.091,-39.826 -0.024,-2.859 0.035,-5.743 -0.137,-8.6 a 64.439,64.439 0 0 0 -1.014,-7.37 c -1.306,-7.34 -3,-14.613 -4.7,-21.869 -2.073,-8.838 -4.245,-17.653 -6.408,-26.469 -0.736,-3 -5.366,-1.728 -4.629,1.276 z"
           id="path34"
           style="fill:#211715" />
        <path
           class="c"
           d="m 46.166,271.575 a 78.3,78.3 0 0 0 -13.547,9.325 2.412,2.412 0 0 0 0,3.394 2.462,2.462 0 0 0 3.4,0 c 0.48,-0.409 0.964,-0.815 1.454,-1.213 q 0.414,-0.336 0.832,-0.666 l 0.373,-0.292 c 0.315,-0.244 -0.24,0.183 0.077,-0.058 q 1.555,-1.182 3.167,-2.288 a 75.32,75.32 0 0 1 6.671,-4.061 2.421,2.421 0 0 0 0.861,-3.284 2.451,2.451 0 0 0 -3.283,-0.861 z"
           id="path35"
           style="fill:#211715" />
        <path
           class="c"
           d="m 143.636,222.965 c -39.487,0.285 -78.783,0.515 -92.735,0.562 a 4.01,4.01 0 0 0 -4,4.029 c 0.081,22.669 1.174,101.122 2.007,129.958 a 4.017,4.017 0 0 0 4.086,3.9 c 12.609,-0.195 51.663,-0.075 90.641,0.058 38.977,-0.133 78.031,-0.253 90.641,-0.058 a 4.016,4.016 0 0 0 4.085,-3.9 c 0.833,-28.836 1.927,-107.289 2.007,-129.958 a 4.01,4.01 0 0 0 -4,-4.029 c -13.95,-0.047 -53.246,-0.277 -92.732,-0.562 z"
           id="path36"
           style="fill:#211715" />
        <path
           class="a"
           d="m 65.948,349.623 c 19.134,-0.119 38.27,-0.017 57.4,0.042 23.359,0.072 46.716,-0.038 70.075,-0.072 9.3,-0.014 18.6,-0.028 27.9,0.03 3.09,0.019 3.093,-4.781 0,-4.8 -19.134,-0.119 -38.27,-0.017 -57.4,0.042 -23.358,0.072 -46.716,-0.038 -70.074,-0.072 -9.3,-0.014 -18.6,-0.028 -27.9,0.03 -3.088,0.019 -3.094,4.819 0,4.8 z"
           id="path37"
           style="fill:#4d4544" />
        <path
           class="c"
           d="m 48.28,325.427 q -0.249,-0.03 -0.5,-0.063 c 0.346,0.046 -0.085,-0.013 -0.128,-0.019 -0.354,-0.052 -0.708,-0.106 -1.061,-0.165 q -1.279,-0.212 -2.547,-0.489 a 50.211,50.211 0 0 1 -5.25,-1.459 48.165,48.165 0 0 1 -12.236,-6.007 c -6.394,-4.484 -14.185,-8.193 -18.613,-14.9 A 21.426,21.426 0 0 1 4.774,289.387 125.184,125.184 0 0 1 12.681,251.75 c 4.524,-11.834 9.528,-23.486 14.369,-35.191 2.047,-4.95 4.11,-9.895 6.037,-14.893 2.455,-6.367 4.283,-12.939 7.656,-18.921 a 33.937,33.937 0 0 1 8.5,-10.156 c 3.3,-2.6 7.082,-4.325 10.644,-6.5 5.171,-3.161 10.219,-6.52 15.386,-9.688 0.77,-0.473 1.541,-0.95 2.336,-1.379 2.719,-1.468 0.3,-5.614 -2.422,-4.145 -5.149,2.78 -9.993,6.215 -14.94,9.332 -2.871,1.809 -5.871,3.35 -8.778,5.095 a 40.177,40.177 0 0 0 -11.155,9.484 c -5.412,6.91 -8.05,15.139 -10.98,23.281 -1.616,4.491 -3.482,8.9 -5.3,13.31 -5.061,12.3 -10.3,24.54 -15.144,36.933 a 126.586,126.586 0 0 0 -6.167,20.223 144.745,144.745 0 0 0 -2.392,16.211 c -0.481,5.183 -0.686,10.43 1.169,15.4 3.162,8.462 10.883,13.509 18.132,18.223 1.757,1.143 3.516,2.287 5.218,3.512 a 39.468,39.468 0 0 0 6.675,3.589 55.6,55.6 0 0 0 11.83,3.979 c 1.629,0.337 3.274,0.579 4.925,0.783 a 2.413,2.413 0 0 0 2.4,-2.4 2.46,2.46 0 0 0 -2.4,-2.4 z"
           id="path38"
           style="fill:#211715" />
        <path
           class="c"
           d="m 239.643,331.313 c 3.955,-0.733 8.03,-1.018 11.908,-2.123 4.548,-1.3 8.261,-3.856 12.1,-6.512 7.237,-5 15.691,-9.282 20.376,-17.07 a 26.663,26.663 0 0 0 3.3,-15.48 145.49,145.49 0 0 0 -2.111,-16.99 124.183,124.183 0 0 0 -6.5,-22.574 c -5.016,-12.909 -10.492,-25.637 -15.753,-38.447 -1.794,-4.371 -3.675,-8.736 -5.209,-13.207 -3.167,-9.231 -6.523,-18.844 -13.666,-25.833 -5.408,-5.29 -12.469,-8.595 -19.06,-12.17 -5.552,-3.012 -11.127,-5.981 -16.7,-8.95 l -2.034,-1.083 c -2.724,-1.455 -5.151,2.687 -2.422,4.144 q 6.993,3.735 13.986,7.471 c 2.669,1.434 5.338,2.87 7.992,4.333 2.857,1.576 5.772,3.071 8.539,4.8 a 34.023,34.023 0 0 1 10.313,9.642 58.889,58.889 0 0 1 6.278,12.772 c 1.86,5.018 3.573,10.049 5.584,15.011 5.112,12.617 10.47,25.133 15.538,37.768 a 165.2,165.2 0 0 1 5.96,16.642 125.531,125.531 0 0 1 3.4,16.284 c 0.38,2.664 0.665,5.344 0.89,8.026 a 36.993,36.993 0 0 1 0.056,8.052 20.021,20.021 0 0 1 -5.8,11.506 59.039,59.039 0 0 1 -10.069,7.7 c -1.826,1.191 -3.664,2.366 -5.456,3.61 a 65.8,65.8 0 0 1 -5.936,3.921 31.075,31.075 0 0 1 -10.516,3.133 c -2.092,0.314 -4.185,0.611 -6.265,1 a 2.421,2.421 0 0 0 -1.676,2.952 2.451,2.451 0 0 0 2.952,1.676 z"
           id="path39"
           style="fill:#211715" />
        <path
           class="c"
           d="m 89.608,163.489 a 61.672,61.672 0 0 0 21.376,8.532 2.463,2.463 0 0 0 2.952,-1.676 2.421,2.421 0 0 0 -1.676,-2.952 57.982,57.982 0 0 1 -20.229,-8.049 c -2.613,-1.666 -5.023,2.487 -2.423,4.145 z"
           id="path40"
           style="fill:#211715" />
        <path
           class="c"
           d="M 77.59,150.664 A 60.672,60.672 0 0 1 61.812,135.773 47.184,47.184 0 0 1 55.564,124.239 51.285,51.285 0 0 1 53.118,110.599 C 52.565,100.952 53.93,91.33 55.465,81.831 a 75.023,75.023 0 0 1 2.922,-11.794 c 3.866,-11.626 9.473,-23.111 17.194,-32.8 a 58.429,58.429 0 0 1 13.972,-13.1 117.269,117.269 0 0 1 14.562,-7.562 q 8.93,-4.053 18.2,-7.3 a 90.48,90.48 0 0 1 15.887,-4.33 c 0.368,-0.056 -0.4,0.049 -0.042,0 0.1,-0.012 0.193,-0.026 0.29,-0.036 0.249,-0.027 0.5,-0.055 0.746,-0.076 0.453,-0.039 0.908,-0.066 1.363,-0.071 a 21.794,21.794 0 0 1 2.854,0.188 c 0.28,0.034 -0.089,-0.013 -0.12,-0.017 0.142,0.02 0.284,0.04 0.425,0.062 0.293,0.046 0.585,0.093 0.877,0.144 0.621,0.109 1.239,0.231 1.856,0.362 1.276,0.272 2.543,0.586 3.8,0.924 a 159.536,159.536 0 0 1 18.168,6.26 c 5.833,2.351 11.587,4.937 17.16,7.853 a 59.286,59.286 0 0 1 13.5,9.287 c 9.538,8.988 16.433,20.984 21.269,32.908 a 104.013,104.013 0 0 1 4.519,13.444 c 0.512,2.019 0.843,4.053 1.173,6.109 0.765,4.752 1.478,9.512 1.922,14.306 0.858,9.261 0.944,19.182 -2.241,28.053 a 48.216,48.216 0 0 1 -6.217,11.283 51.972,51.972 0 0 1 -7.467,8.373 75.344,75.344 0 0 1 -8.2,6.355 c -2.533,1.734 -0.135,5.9 2.423,4.144 a 67.552,67.552 0 0 0 17.04,-15.967 54.98,54.98 0 0 0 6.738,-12.089 51.225,51.225 0 0 0 2.942,-14.3 c 0.835,-9.968 -0.5,-19.975 -2.055,-29.807 A 85.038,85.038 0 0 0 227.824,69.2 114.154,114.154 0 0 0 209.775,34.505 63.552,63.552 0 0 0 194.708,20.25 113.551,113.551 0 0 0 179.723,12.365 C 173.351,9.452 166.847,6.796 160.223,4.506 A 82.284,82.284 0 0 0 143.314,0.145 c -4.609,-0.553 -9.248,0.57 -13.668,1.791 a 171.032,171.032 0 0 0 -18.61,6.491 C 99.613,13.055 87.75,18.057 78.711,26.673 68.608,36.3 61.526,48.88 56.349,61.725 a 101.313,101.313 0 0 0 -4.534,13.667 c -0.6,2.465 -0.955,4.979 -1.349,7.484 -0.79,5.021 -1.507,10.061 -1.92,15.129 a 87.1,87.1 0 0 0 -0.058,14.907 49.986,49.986 0 0 0 3.064,14.248 57.433,57.433 0 0 0 14.71,20.78 85.452,85.452 0 0 0 8.905,6.868 c 2.556,1.75 4.96,-2.408 2.423,-4.144 z"
           id="path41"
           style="fill:#211715" />
        <path
           class="c"
           d="m 190.756,159.344 a 57.99,57.99 0 0 1 -20.229,8.049 2.423,2.423 0 0 0 -1.677,2.952 2.451,2.451 0 0 0 2.953,1.676 61.668,61.668 0 0 0 21.375,-8.532 c 2.6,-1.656 0.193,-5.812 -2.422,-4.145 z"
           id="path42"
           style="fill:#211715" />
        <path
           class="a"
           d="m 130.172,283.91 c 0.048,-0.224 0.119,-0.436 0.183,-0.655 0.087,-0.3 -0.218,0.429 -0.066,0.154 0.049,-0.088 0.09,-0.181 0.14,-0.27 a 4.279,4.279 0 0 1 0.374,-0.579 c 0.028,0.015 -0.405,0.454 -0.084,0.125 0.091,-0.093 0.175,-0.192 0.267,-0.284 0.071,-0.071 0.434,-0.484 0.526,-0.472 0.007,0 -0.5,0.338 -0.106,0.091 0.089,-0.056 0.174,-0.118 0.264,-0.174 q 0.267,-0.168 0.551,-0.311 a 2.827,2.827 0 0 1 0.284,-0.136 c -0.309,0.126 -0.379,0.157 -0.21,0.091 0.073,-0.028 0.146,-0.055 0.221,-0.08 a 6.485,6.485 0 0 1 0.626,-0.181 c 0.109,-0.026 0.218,-0.045 0.326,-0.07 0.417,-0.1 -0.073,0.023 -0.143,0.011 a 4.287,4.287 0 0 0 0.665,-0.041 c 0.138,0 0.276,0 0.414,0.012 0.421,0.027 0.1,0.083 -0.066,-0.02 a 3.184,3.184 0 0 0 0.635,0.151 l 0.154,0.051 q 0.3,0.114 0.013,0 c -0.231,-0.208 -0.031,0 0.078,0.057 0.109,0.057 0.183,0.119 0.277,0.171 0.281,0.153 -0.326,-0.307 -0.116,-0.093 0.083,0.085 0.174,0.174 0.263,0.253 0.308,0.277 -0.2,-0.32 -0.051,-0.087 0.108,0.168 0.217,0.329 0.31,0.506 0.213,0.409 -0.092,0 -0.026,-0.095 a 2.754,2.754 0 0 0 0.1,0.286 c 0.061,0.194 0.1,0.391 0.147,0.589 0.048,0.227 -0.072,0.246 -0.023,-0.185 a 4.1,4.1 0 0 0 0.022,0.455 c 0,0.1 -0.007,0.2 -0.009,0.3 0,0.292 -0.123,0.048 0.038,-0.188 -0.051,0.075 -0.05,0.587 -0.149,0.594 0.016,0 0.213,-0.455 0.049,-0.12 -0.048,0.1 -0.094,0.2 -0.145,0.295 a 7.519,7.519 0 0 1 -0.417,0.709 1.335,1.335 0 0 1 -0.188,0.27 c 0.163,-0.065 0.273,-0.328 0.073,-0.1 -0.162,0.187 -0.324,0.371 -0.5,0.545 -0.156,0.155 -0.325,0.293 -0.486,0.443 -0.237,0.219 0.366,-0.25 0.1,-0.073 -0.146,0.1 -0.286,0.2 -0.435,0.293 -0.2,0.125 -0.417,0.222 -0.622,0.342 -0.288,0.168 0.4,-0.135 0.086,-0.031 -0.14,0.045 -0.276,0.1 -0.418,0.143 -0.142,0.043 -0.595,0.065 -0.686,0.158 0.052,-0.052 0.569,-0.025 0.114,-0.028 -0.171,0 -0.344,0 -0.514,0 -0.394,0.01 0.185,-0.056 0.155,0.032 a 3.118,3.118 0 0 1 -0.4,-0.085 c -0.1,-0.027 -0.2,-0.069 -0.31,-0.094 q -0.255,-0.09 0.2,0.094 c -0.074,-0.033 -0.146,-0.069 -0.217,-0.107 -0.095,-0.05 -0.188,-0.1 -0.279,-0.161 -0.386,-0.245 0.012,-0.085 0.035,0.042 a 2.309,2.309 0 0 0 -0.232,-0.22 c -0.36,-0.3 0.208,0.385 -0.042,-0.04 -0.127,-0.215 -0.43,-0.586 -0.44,-0.84 0,0.045 0.189,0.508 0.029,0.057 -0.062,-0.176 -0.126,-0.35 -0.18,-0.529 -0.035,-0.119 -0.067,-0.239 -0.1,-0.359 -0.018,-0.08 -0.079,-0.593 -0.053,-0.227 0.029,0.4 0,-0.208 0,-0.234 0,-0.142 0.086,-0.728 -0.01,-0.161 a 2.458,2.458 0 0 0 -1.676,-2.952 2.428,2.428 0 0 0 -2.952,1.676 8.625,8.625 0 0 0 0.87,5.324 6.3,6.3 0 0 0 3.69,3.252 c 2.992,1.054 6.4,-0.349 8.447,-2.606 a 8.74,8.74 0 0 0 2.2,-3.87 7.663,7.663 0 0 0 -0.547,-4.674 6.08,6.08 0 0 0 -2.928,-2.991 8.185,8.185 0 0 0 -4.922,-0.555 8.486,8.486 0 0 0 -6.812,6.133 2.4003416,2.4003416 0 1 0 4.628,1.276 z"
           id="path43"
           style="fill:#4d4544" />
        <path
           class="a"
           d="m 162.727,282.634 c -1.3,-6.1 -10.53,-8.74 -14.235,-3.372 a 7.092,7.092 0 0 0 -1.141,4.071 7.45,7.45 0 0 0 1.474,4.134 8.818,8.818 0 0 0 8.4,3.96 6.269,6.269 0 0 0 4.371,-2.963 8.553,8.553 0 0 0 1.133,-5.83 2.411,2.411 0 0 0 -2.953,-1.676 2.468,2.468 0 0 0 -1.676,2.952 c -0.085,-0.5 -0.011,-0.162 -0.014,-0.042 0,0.155 -0.013,0.324 -0.007,0.48 0.014,0.341 0.1,-0.419 0.016,-0.088 -0.03,0.119 -0.049,0.242 -0.079,0.362 -0.068,0.273 -0.164,0.532 -0.253,0.8 -0.04,0.119 -0.1,0.424 0.029,-0.057 a 2.339,2.339 0 0 1 -0.2,0.429 c -0.058,0.112 -0.119,0.223 -0.186,0.33 l -0.05,0.081 q -0.246,0.354 0.067,-0.078 a 2.165,2.165 0 0 1 -0.222,0.231 c -0.246,0.26 0.11,-0.041 0.116,-0.069 -0.02,0.105 -0.454,0.28 -0.55,0.332 -0.381,0.21 0.078,-0.063 0.129,-0.05 a 2.642,2.642 0 0 0 -0.465,0.141 1.844,1.844 0 0 0 -0.318,0.064 c 0.064,-0.034 0.575,-0.034 0.156,-0.032 -0.145,0 -0.582,0.078 -0.69,-0.014 0.117,0.1 0.438,0.085 0.116,0.01 -0.115,-0.027 -0.229,-0.049 -0.343,-0.08 -0.143,-0.037 -0.283,-0.081 -0.422,-0.13 -0.5,-0.175 0,-0.006 0,0.009 0,0.015 -0.583,-0.307 -0.626,-0.333 -0.127,-0.076 -0.25,-0.157 -0.372,-0.241 -0.072,-0.05 -0.353,-0.286 -0.093,-0.06 0.275,0.238 -0.26,-0.239 -0.318,-0.294 a 7.582,7.582 0 0 1 -0.564,-0.6 c -0.063,-0.073 -0.242,-0.365 -0.069,-0.078 0.173,0.287 0,-0.017 -0.054,-0.09 -0.138,-0.2 -0.267,-0.415 -0.386,-0.631 a 5.679,5.679 0 0 0 -0.29,-0.591 c 0.055,0.077 0.151,0.5 0.059,0.116 -0.032,-0.138 -0.046,-0.307 -0.091,-0.44 0.022,0.064 0.034,0.588 0.038,0.188 0,-0.1 -0.009,-0.2 -0.009,-0.3 0,-0.1 0.008,-0.2 0.011,-0.3 0.008,-0.409 -0.018,0.126 -0.037,0.183 0.062,-0.188 0.075,-0.4 0.129,-0.594 0.028,-0.1 0.064,-0.192 0.091,-0.289 0.132,-0.475 -0.227,0.419 -0.008,0.019 0.1,-0.175 0.2,-0.342 0.3,-0.512 0.225,-0.364 -0.071,0.144 -0.1,0.136 a 2.621,2.621 0 0 0 0.253,-0.264 c 0.141,-0.134 0.27,-0.1 0.043,-0.053 l -0.12,0.094 c 0.067,-0.048 0.135,-0.093 0.205,-0.134 0.092,-0.057 0.193,-0.1 0.284,-0.159 q 0.243,-0.12 -0.2,0.075 c 0.075,-0.03 0.151,-0.058 0.229,-0.082 0.208,-0.069 0.419,-0.107 0.631,-0.162 0.318,-0.083 -0.481,0.03 -0.151,0.018 0.138,0 0.275,-0.021 0.413,-0.024 0.223,0 0.443,0.01 0.665,0.023 0.371,0.023 -0.1,-0.056 -0.141,-0.023 0.053,-0.044 0.434,0.085 0.49,0.1 a 6.773,6.773 0 0 1 0.7,0.207 c 0.087,0.031 0.405,0.171 0.079,0.022 -0.366,-0.166 0.143,0.077 0.213,0.113 a 7,7 0 0 1 0.614,0.361 1.92,1.92 0 0 1 0.26,0.18 q -0.412,-0.327 -0.114,-0.083 l 0.119,0.1 c 0.2,0.174 0.373,0.362 0.552,0.553 0.128,0.136 0.14,0.3 -0.083,-0.125 0.068,0.13 0.18,0.255 0.258,0.381 0.054,0.087 0.1,0.175 0.153,0.265 0.04,0.075 0.25,0.48 0.073,0.125 -0.177,-0.355 0.015,0.071 0.036,0.138 0.044,0.146 0.078,0.293 0.11,0.441 a 2.416,2.416 0 0 0 2.952,1.676 2.457,2.457 0 0 0 1.663,-2.957 z"
           id="path44"
           style="fill:#4d4544" />
        <path
           class="a"
           d="m 165.973,268.1 c -7.934,-8.041 -20.693,-10.139 -31.384,-7.4 a 27.347,27.347 0 0 0 -15.489,10.15 20.864,20.864 0 0 0 -3.4,17.421 c 1.65,6.539 6.531,13.491 13.181,15.588 l -1.762,-2.315 q 0.058,3.582 0.112,7.164 c 0.018,1.2 0.01,2.4 0.928,3.3 a 5.25,5.25 0 0 0 3.231,1.2 c 2.36,0.243 4.81,0.1 7.179,0.108 5.328,0.016 10.661,0.055 15.988,-0.041 2.438,-0.044 5.33,-0.5 5.535,-3.462 0.189,-2.738 0.091,-5.525 0.136,-8.269 l -1.762,2.315 c 6.707,-2.115 11.629,-9.172 13.228,-15.782 1.768,-7.309 -0.613,-14.587 -5.725,-19.977 -2.13,-2.246 -5.52,1.152 -3.394,3.394 a 16.514,16.514 0 0 1 4.49,15.307 20.123,20.123 0 0 1 -3.646,7.539 13.454,13.454 0 0 1 -6.229,4.89 2.468,2.468 0 0 0 -1.762,2.314 q -0.036,2.148 -0.068,4.3 -0.015,0.955 -0.029,1.912 a 10.5,10.5 0 0 1 -0.065,1.842 l 0.617,-1.059 c 0.506,-0.473 -0.026,-0.127 -0.348,-0.089 -0.344,0.04 -0.7,0.025 -1.046,0.031 -0.318,0.006 -0.636,0.009 -0.954,0.012 -0.914,0.01 -1.828,0.015 -2.742,0.02 q -3.559,0.018 -7.119,0.015 -3.56,-0.003 -7.119,-0.015 -1.326,-0.006 -2.652,-0.019 c -0.326,0 -0.652,-0.006 -0.977,-0.012 -0.3,0 -0.6,0 -0.9,-0.023 -0.339,-0.026 -1.07,-0.4 -0.561,0.08 l 0.617,1.059 a 17.058,17.058 0 0 1 -0.094,-3.754 q -0.033,-2.148 -0.068,-4.3 a 2.465,2.465 0 0 0 -1.762,-2.314 c -4.642,-1.464 -8.1,-6.647 -9.5,-11.079 a 16.141,16.141 0 0 1 1.922,-13.922 c 5.213,-8.02 15.182,-10.24 24.149,-9.715 a 24.677,24.677 0 0 1 15.847,6.98 c 2.176,2.206 5.57,-1.194 3.397,-3.394 z"
           id="path45"
           style="fill:#4d4544" />
        <path
           class="a"
           d="m 146.305,304.4 v 5.42 a 2.476,2.476 0 0 0 0.7,1.7 2.4,2.4 0 0 0 4.1,-1.7 v -5.42 a 2.475,2.475 0 0 0 -0.7,-1.7 2.4,2.4 0 0 0 -4.1,1.7 z"
           id="path46"
           style="fill:#4d4544" />
        <path
           class="a"
           d="m 136.258,304.4 v 5.42 a 2.477,2.477 0 0 0 0.7,1.7 2.4,2.4 0 0 0 4.1,-1.7 v -5.42 a 2.475,2.475 0 0 0 -0.7,-1.7 2.4,2.4 0 0 0 -4.1,1.7 z"
           id="path47"
           style="fill:#4d4544" />
        <path
           class="d"
           d="m 84.658,94.118 c 9.666,-9.575 32.56,-22.55 54.927,-22.55 22.367,0 45.26,12.975 54.926,22.55 0.909,5.778 -38.673,-7.635 -55.589,-7.635 -13.111,0 -55.129,19.147 -54.264,7.635 z"
           id="path48"
           style="fill:#d9d9d9" />
        <path
           class="c"
           d="m 92.434,128.248 a 38.482,38.482 0 0 1 -3.693,-6.345 42.686,42.686 0 0 1 -2.4,-6.6 l 1.991,-0.5 c 12.915,-3.243 32.382,-9.834 43.588,-17.028 2.68,-1.72 5.619,-3.627 8.776,-3.206 a 12.378,12.378 0 0 1 5.287,2.534 l 1.046,0.672 c 11.206,7.194 30.673,13.785 43.588,17.028 l 1.839,0.462 c -4.613,15.509 -15.525,26.656 -26.451,29.4 a 95.426,95.426 0 0 1 -19.971,3.09 c -7.118,0.3 -19.129,-0.581 -19.129,-0.581 -13.049,-2.426 -26.316,-7.586 -34.471,-18.926 z"
           id="path49"
           style="fill:#211715" />
        <path
           class="c"
           d="m 88.968,117.113 c 6.642,-1.673 13.211,-3.654 19.681,-5.9 a 150.962,150.962 0 0 0 20.2,-8.423 c 3,-1.558 5.737,-3.633 8.774,-5.09 a 5.932,5.932 0 0 1 4.907,-0.4 29.136,29.136 0 0 1 4.422,2.727 116.067,116.067 0 0 0 19.676,9.536 191.742,191.742 0 0 0 23.345,7.554 c 3,0.756 4.274,-3.872 1.276,-4.628 a 192.367,192.367 0 0 1 -20.854,-6.593 119.627,119.627 0 0 1 -20.011,-9.387 c -3.262,-1.985 -6.377,-4.73 -10.462,-4.362 -3.957,0.357 -7.076,2.863 -10.388,4.794 a 117.541,117.541 0 0 1 -19.169,8.583 232.99,232.99 0 0 1 -22.677,6.965 c -2.994,0.754 -1.725,5.385 1.276,4.628 z"
           id="path50"
           style="fill:#211715" />
        <path
           class="a"
           d="m 137.992,102.626 c -0.156,12.767 0.042,25.535 -0.114,38.3 -0.037,3.09 4.763,3.092 4.8,0 0.156,-12.766 -0.042,-25.534 0.114,-38.3 0.037,-3.09 -4.763,-3.092 -4.8,0 z"
           id="path51"
           style="fill:#4d4544" />
        <path
           class="c"
           d="m 90.813,120.692 c -3.785,-8.278 -4.4,-17.61 -3.755,-26.574 l -0.7,1.7 a 71.045,71.045 0 0 1 16,-11.385 89.545,89.545 0 0 1 23.073,-8.816 62.965,62.965 0 0 1 25.169,-0.639 86.812,86.812 0 0 1 23.613,8.089 c 6.682,3.386 13.238,7.473 18.6,12.751 l -0.7,-1.7 a 52.965,52.965 0 0 1 -6.9,31.773 c -4.329,7.243 -11.017,13.937 -19.08,16.248 a 88.6,88.6 0 0 1 -26,3.245 c -4.158,-0.076 -8.316,-0.284 -12.465,-0.565 -0.25,-0.016 -0.5,-0.022 -0.753,-0.052 0.813,0.1 -0.319,-0.1 -0.395,-0.11 l -0.684,-0.137 q -1.028,-0.21 -2.051,-0.444 a 77.075,77.075 0 0 1 -7.446,-2.08 49.3,49.3 0 0 1 -14.7,-7.632 37.327,37.327 0 0 1 -10.824,-13.672 2.42,2.42 0 0 0 -3.284,-0.861 2.455,2.455 0 0 0 -0.861,3.284 c 4.452,9.509 12.45,16.644 21.931,20.957 a 72.8,72.8 0 0 0 14.247,4.71 55.619,55.619 0 0 0 9.552,1.118 c 4.692,0.242 9.414,0.45 14.111,0.226 a 97.968,97.968 0 0 0 16.684,-2.3 42.461,42.461 0 0 0 8.327,-2.609 36.334,36.334 0 0 0 10.351,-7.305 52.2,52.2 0 0 0 14.029,-26.518 55.912,55.912 0 0 0 1.006,-17.274 c -0.233,-2.09 -2.961,-3.828 -4.5,-5.077 q -2.853,-2.314 -5.911,-4.363 a 94.631,94.631 0 0 0 -31.068,-13.6 68.844,68.844 0 0 0 -18.183,-1.866 75.032,75.032 0 0 0 -18.038,3.052 94.641,94.641 0 0 0 -29.584,14.558 67.578,67.578 0 0 0 -5.3,4.306 c -0.955,0.869 -1.922,1.613 -2.065,2.988 -0.175,1.69 -0.206,3.41 -0.225,5.108 a 60.409,60.409 0 0 0 2.034,16.874 47.886,47.886 0 0 0 2.6,7.014 2.42,2.42 0 0 0 3.284,0.861 2.457,2.457 0 0 0 0.861,-3.283 z"
           id="path52"
           style="fill:#211715" />
        <path
           class="c"
           d="m 143.636,220.565 q -41.394,0.3 -82.788,0.519 l -6.34,0.029 c -1.908,0.008 -4.083,-0.248 -5.883,0.454 -2.887,1.124 -4.133,3.773 -4.12,6.73 q 0.007,2.028 0.023,4.057 0.081,11.676 0.232,23.354 0.368,31.124 0.91,62.246 0.243,13.923 0.544,27.844 0.12,5.295 0.263,10.59 c 0.086,3.088 1.13,5.851 4.246,7.023 1.737,0.655 3.8,0.38 5.623,0.363 25.287,-0.227 50.581,-0.024 75.868,0.06 28.8,0.095 57.608,-0.168 86.412,-0.115 4.239,0.007 8.477,0.019 12.716,0.059 2.047,0.02 4.2,0.274 6.075,-0.747 2.7,-1.474 3.307,-4.1 3.385,-6.932 0.22,-7.935 0.382,-15.872 0.536,-23.809 q 0.606,-31.2 1,-62.4 0.18,-13.722 0.323,-27.446 0.051,-5.229 0.089,-10.459 c 0.009,-1.329 0.026,-2.659 0.022,-3.989 a 6.6,6.6 0 0 0 -4.746,-6.651 c -1.771,-0.486 -3.883,-0.226 -5.71,-0.234 q -3.23,-0.013 -6.458,-0.03 -8.049,-0.039 -16.1,-0.086 -21.425,-0.123 -42.849,-0.268 -11.637,-0.078 -23.273,-0.162 c -3.09,-0.023 -3.093,4.777 0,4.8 q 40.819,0.294 81.64,0.513 3.051,0.017 6.1,0.029 c 1.643,0.007 3.355,-0.121 4.992,0.02 1.818,0.157 1.6,1.921 1.592,3.308 q -0.01,2.031 -0.025,4.063 -0.086,11.637 -0.236,23.273 -0.361,30.375 -0.888,60.748 -0.238,13.678 -0.531,27.356 -0.119,5.37 -0.261,10.739 c -0.034,1.268 0.276,3.289 -1.4,3.59 a 12.842,12.842 0 0 1 -2.286,-0.016 q -1.248,-0.014 -2.5,-0.023 c -24.925,-0.193 -49.856,-0.013 -74.782,0.069 -28.262,0.093 -56.525,-0.157 -84.787,-0.118 -4.427,0.006 -8.854,0.016 -13.28,0.053 a 22.757,22.757 0 0 1 -4.366,0.019 c -1.742,-0.349 -1.349,-2.644 -1.385,-3.973 -0.214,-7.963 -0.376,-15.928 -0.529,-23.893 q -0.585,-30.456 -0.968,-60.917 -0.177,-13.392 -0.318,-26.786 -0.052,-5.251 -0.092,-10.5 -0.015,-2 -0.024,-4 c -0.008,-1.583 0.005,-2.966 1.952,-2.99 23.193,-0.283 46.394,-0.246 69.589,-0.4 q 11.394,-0.078 22.787,-0.159 c 3.093,-0.028 3.1,-4.828 0.006,-4.805 z"
           id="path53"
           style="fill:#211715" />
      </g>
    </symbol>
  </defs>
  <g
     inkscape:label="Calque 1"
     inkscape:groupmode="layer"
     id="layer1">
    <use
       xlink:href="#Local_vector_library.svg:g53"
       id="use1"
       transform="translate(-58.108624,-0.44557452)" />
  </g>
</svg>
